<svg width="52" height="36" viewBox="0 0 52 36" fill="none" xmlns="http://www.w3.org/2000/svg">
<path d="M32.5 14.164C34.2085 15.3765 34.7022 17.3752 35.3548 19.3371C36.0074 21.299 36.0074 23.4123 35.3548 25.3742C34.7022 27.3361 33.4305 29.0458 31.7221 30.2583C30.0136 31.4709 27.956 32.1239 25.8442 32.1239C23.7324 32.1239 21.6748 31.4709 19.9664 30.2583C18.2579 29.0458 16.9862 27.3361 16.3337 25.3742C15.6811 23.4123 15.6811 21.299 16.3337 19.3371C16.9862 17.3752 19 14.4529 19 14.4529" stroke="black"/>
<line x1="19.5" y1="14.6525" x2="19.5" y2="2.67029e-05" stroke="black"/>
<line x1="32.207" y1="14.6705" x2="32.207" y2="0.0180931" stroke="black"/>
<line x1="20" y1="0.5" y2="0.5" stroke="black"/>
<line x1="52" y1="0.5" x2="32" y2="0.5" stroke="black"/>
<ellipse cx="25.85" cy="22" rx="9.25" ry="9.5" fill="white"/>
<path d="M36 21.5C36 26.7467 31.5228 31.5 26 31.5C20.4772 31.5 16 26.7467 16 21.5C16 16.2533 20.4772 12 26 12C31.5228 12 36 16.2533 36 21.5Z" fill="black" fill-opacity="0.5"/>
<rect x="20" width="12" height="15" fill="white"/>
<rect x="20" width="12" height="15" fill="black" fill-opacity="0.5"/>
</svg>
